<svg width="0" height="0" class="hidden">
  <symbol version="1.1" id="courses" xmlns="http://www.w3.org/2000/svg" xmlns:xlink="http://www.w3.org/1999/xlink" x="0px" y="0px" xml:space="preserve" viewBox="0 0 79.536 79.537">
    <g>
      <path d="M26.947,38.109c-7.912-3.278-14.864-3.573-21.241-0.921l-0.394-0.966
		c6.649-2.758,13.867-2.449,22.038,0.927L26.947,38.109z M27.351,43.477c-8.161-3.374-15.389-3.682-22.038-0.928l0.394,0.963
		c6.4-2.641,13.339-2.335,21.241,0.928L27.351,43.477z M27.351,30.819c-8.161-3.374-15.389-3.674-22.038-0.933l0.394,0.969
		c6.4-2.646,13.339-2.343,21.241,0.929L27.351,30.819z M62.552,43.305l3.169-3.176v24.003H38.585
		c-0.938,0.802-3.143,1.372-5.727,1.372c-2.581,0-4.782-0.57-5.714-1.372H0V27.122c0-3.275,0-5.424,0-5.541
		c17.865-7.757,30.914-0.147,33.182,2.048c1.587-1.462,13.121-8.262,28.148-3.658l-3.019,3.021
		c-2.098-0.603-4.412-0.981-6.888-0.981c-8.968,0-16.249,2.975-16.249,8.479v30.996c0-1.455,12.702-9.978,27.382-0.679V43.305
		H62.552z M30.758,30.49c0-5.504-7.278-8.479-16.247-8.479c-4.306,0-8.223,1.031-11.123,2.711v36.081
		c14.665-9.3,27.369-0.776,27.369,0.679V30.49z M37.229,37.144l0.398,0.966c3.117-1.294,6.325-1.994,9.483-2.367l0.456-1.095
		C44.128,34.992,40.628,35.743,37.229,37.144z M37.229,43.477l0.394,0.963c2.227-0.917,4.494-1.549,6.771-1.999l0.445-1.108
		C42.298,41.789,39.727,42.441,37.229,43.477z M37.229,30.819l0.394,0.965c4.781-1.978,9.778-2.762,14.46-2.561l0.983-0.989
		C47.971,27.87,42.472,28.649,37.229,30.819z M78.418,24.131L59.145,43.404l-4.95,2.024c-1.139,0.451-2.734,1.108-4.096,1.652
		c-0.373,0.155-0.818,0.331-1.124,0.455l-2.351,0.969c-1.43,0.569-2.134-0.119-1.543-1.559l0.942-2.346
		c0.135-0.306,0.311-0.74,0.466-1.118c0.56-1.362,1.201-2.975,1.657-4.099l2.03-4.961l19.262-19.268
		c1.181-1.188,2.828-1.479,3.651-0.652l5.985,5.986C79.889,21.317,79.599,22.956,78.418,24.131z M56.286,42.829l-5.54-5.548
		l-1.098,2.716l-0.643,1.564l-0.621,1.532l2.092,2.103l3.117-1.269L56.286,42.829z"></path>
    </g>
    <g></g>
    <g></g>
    <g></g>
    <g></g>
    <g></g>
    <g></g>
    <g></g>
    <g></g>
    <g></g>
    <g></g>
    <g></g>
    <g></g>
    <g></g>
    <g></g>
    <g></g>
  </symbol>
  <symbol xmlns="http://www.w3.org/2000/svg" viewBox="0 0 24 24" id="language">
    <path d="M11.99 2C6.47 2 2 6.48 2 12s4.47 10 9.99 10C17.52 22 22 17.52 22 12S17.52 2 11.99 2zm6.93 6h-2.95c-.32-1.25-.78-2.45-1.38-3.56 1.84.63 3.37 1.91 4.33 3.56zM12 4.04c.83 1.2 1.48 2.53 1.91 3.96h-3.82c.43-1.43 1.08-2.76 1.91-3.96zM4.26 14C4.1 13.36 4 12.69 4 12s.1-1.36.26-2h3.38c-.08.66-.14 1.32-.14 2 0 .68.06 1.34.14 2H4.26zm.82 2h2.95c.32 1.25.78 2.45 1.38 3.56-1.84-.63-3.37-1.9-4.33-3.56zm2.95-8H5.08c.96-1.66 2.49-2.93 4.33-3.56C8.81 5.55 8.35 6.75 8.03 8zM12 19.96c-.83-1.2-1.48-2.53-1.91-3.96h3.82c-.43 1.43-1.08 2.76-1.91 3.96zM14.34 14H9.66c-.09-.66-.16-1.32-.16-2 0-.68.07-1.35.16-2h4.68c.09.65.16 1.32.16 2 0 .68-.07 1.34-.16 2zm.25 5.56c.6-1.11 1.06-2.31 1.38-3.56h2.95c-.96 1.65-2.49 2.93-4.33 3.56zM16.36 14c.08-.66.14-1.32.14-2 0-.68-.06-1.34-.14-2h3.38c.16.64.26 1.31.26 2s-.1 1.36-.26 2h-3.38z"></path>
  </symbol>
  <symbol version="1.1" id="university" xmlns="http://www.w3.org/2000/svg" xmlns:xlink="http://www.w3.org/1999/xlink" x="0px" y="0px" xml:space="preserve" viewBox="0 0 612 612">
    <g>
      <g id="Graduation_x5F_Cap">
        <g>
          <path d="M593.198,207.57l-272-136C316.608,69.275,311.457,68,306,68s-10.608,1.275-15.198,3.57l-272,136
				C7.65,213.146,0,224.689,0,238s7.65,24.854,18.802,30.43L34,276.029v119.697C23.868,401.608,17,412.454,17,425
				c0,18.785,15.232,34,34,34s34-15.215,34-34c0-12.546-6.868-23.392-17-29.291V293.012l51,25.5V425c0,65.722,83.725,119,187,119
				c103.275,0,187-53.278,187-119V318.529l100.198-50.099C604.35,262.854,612,251.311,612,238S604.35,213.146,593.198,207.57z
				 M442,425c0,31.45-59.398,68-136,68c-76.602,0-136-36.55-136-68v-80.988l120.802,60.418c4.59,2.295,9.741,3.57,15.198,3.57
				s10.608-1.275,15.198-3.57L442,344.012V425z M306,355.011L71.978,238L306,120.989L540.022,238L306,355.011z"></path>
        </g>
      </g>
    </g>
    <g></g>
    <g></g>
    <g></g>
    <g></g>
    <g></g>
    <g></g>
    <g></g>
    <g></g>
    <g></g>
    <g></g>
    <g></g>
    <g></g>
    <g></g>
    <g></g>
    <g></g>
  </symbol>
</svg>